<?xml version="1.0" standalone="no"?><!DOCTYPE svg PUBLIC "-//W3C//DTD SVG 1.1//EN" "http://www.w3.org/Graphics/SVG/1.1/DTD/svg11.dtd"><svg t="1772767434947" class="icon" viewBox="0 0 1024 1024" version="1.1" xmlns="http://www.w3.org/2000/svg" p-id="27674" xmlns:xlink="http://www.w3.org/1999/xlink" width="200" height="200"><path d="M622.464 15.04c60.992 0 110.4 49.472 110.4 110.464v2.688a138.048 138.048 0 1 1-69.632 233.344c7.936 13.44 12.8 24.448 13.952 31.04l2.56 13.504c4.096 24.32 4.928 47.552-8.832 92.928a202.944 202.944 0 0 1-19.136 40.768l-28.864 48.128c-23.168 39.36-47.104 86.464-55.68 144.96-16 109.312 46.08 191.68 185.92 246.976 15.36 6.08 18.368 13.12 18.368 19.84 0 6.72-4.864 9.28-11.712 9.28H436.224a329.792 329.792 0 0 1-62.272-193.28 329.792 329.792 0 0 1 77.696-213.056l13.888-16.064 23.424-26.496 16.256-19.328c32.192-39.808 62.016-86.912 62.016-139.2 0-8.768-0.768-17.536-2.048-26.112a138.048 138.048 0 1 1-53.056-247.232L512 125.504C512 64.512 561.472 15.04 622.464 15.04zM153.088 677.76c42.624 0 78.336 32.384 82.432 74.816l0.128 3.84c25.984 7.68 52.992 19.456 80.896 35.328l2.816 1.6c-1.28 22.272-0.64 44.672 1.92 66.752a321.664 321.664 0 0 0-31.936-20.352 337.024 337.024 0 0 0-69.504-30.4 82.624 82.624 0 0 1-131.136 3.264 55.232 55.232 0 1 1 0-104.128c15.232-18.752 38.4-30.72 64.384-30.72z m686.016-237.568c8.256 6.848 15.872 14.592 22.656 22.912a110.464 110.464 0 1 1 0 208.32 165.312 165.312 0 0 1-128.96 61.44 165.12 165.12 0 0 1-101.312-34.432c8.064-24.512 19.584-48.832 35.456-76.352l30.848-51.712c12.736-21.632 20.672-38.144 25.984-55.232 6.272-19.456 10.624-39.488 12.928-59.84a193.024 193.024 0 0 0 102.4-15.104zM311.616 350.016a193.088 193.088 0 0 0 172.8 106.752l5.888-0.064 5.824-0.32-1.728 3.392a323.84 323.84 0 0 1-31.616 45.44l-11.264 13.568-36.288 41.728-13.696 16.32-5.888 7.488a382.4 382.4 0 0 0-51.52 93.376 165.12 165.12 0 0 1-126.72-61.44 110.464 110.464 0 1 1 0-208.32c23.872-29.44 57.088-49.92 94.208-57.856v-0.064z" fill="#A57269" p-id="27675"></path></svg>