<svg xmlns="http://www.w3.org/2000/svg" viewBox="0 0 597 717"><path d="m430 28 141 148c14 15 26 43 26 65v438c0 20-16 38-38 38H38c-20 0-38-18-38-38V38C0 18 18 0 38 0h328c22 0 50 13 64 28zM79 651h439c7 0 13-6 13-13V272c0-7-6-13-13-13H361c-7 0-13-6-13-13V79c0-7-5-12-12-12H79c-7 0-12 5-12 12v559c0 7 5 13 12 13zm408-467-63-68c-5-5-9-3-9 4v61c0 6 6 12 12 12h56c7 0 9-4 4-9zm-331-58h124c13 0 25 12 25 26v15c0 13-12 25-25 25H156c-14 0-26-12-26-25v-15c0-14 12-26 26-26zm0 134h124c13 0 25 12 25 26v15c0 13-12 25-25 25H156c-14 0-26-12-26-25v-15c0-14 12-26 26-26zm283 200H156c-14 0-26-11-26-25v-15c0-14 12-25 26-25h283c13 0 26 11 26 25v15c0 14-13 25-26 25zm0 137H156c-14 0-26-11-26-24v-16c0-14 12-25 26-25h283c13 0 26 11 26 25v16c0 13-13 24-26 24z" fill="#666"/></svg>