<svg xmlns="http://www.w3.org/2000/svg" class="icon" p-id="120975" t="1760290045819" version="1.1" viewBox="0 0 1024 1024"><path d="M216.02 144.93h67.96q50.02 0 50.02 50.02V816.7q0 50.02-50.02 50.02h-67.96q-50.02 0-50.02-50.02V194.95q0-50.02 50.02-50.02zm214 1h67.96q50.02 0 50.02 50.02V817.7q0 50.02-50.02 50.02h-67.96q-50.02 0-50.02-50.02V195.95q0-50.02 50.02-50.02z" fill="#FF9906" p-id="120976"/><path d="M209.47 227h80.38Q312 227 312 249.15v.28q0 22.15-22.15 22.15h-80.38q-22.15 0-22.15-22.15v-.28q0-22.15 22.15-22.15zm0 72h80.38Q312 299 312 321.15v.28q0 22.15-22.15 22.15h-80.38q-22.15 0-22.15-22.15v-.28q0-22.15 22.15-22.15zm0 72h80.38Q312 371 312 393.15v.28q0 22.15-22.15 22.15h-80.38q-22.15 0-22.15-22.15v-.28q0-22.15 22.15-22.15zm214-144h80.38Q526 227 526 249.15v.28q0 22.15-22.15 22.15h-80.38q-22.15 0-22.15-22.15v-.28q0-22.15 22.15-22.15zm0 72h80.38Q526 299 526 321.15v.28q0 22.15-22.15 22.15h-80.38q-22.15 0-22.15-22.15v-.28q0-22.15 22.15-22.15zm0 72h80.38Q526 371 526 393.15v.28q0 22.15-22.15 22.15h-80.38q-22.15 0-22.15-22.15v-.28q0-22.15 22.15-22.15z" fill="#FFDEC5" p-id="120977"/><path d="m633.546 157.117 66.95-11.673q49.277-8.591 57.868 40.685l106.79 612.51q8.591 49.278-40.685 57.869l-66.95 11.672q-49.277 8.592-57.868-40.685l-106.79-612.51q-8.592-49.277 40.685-57.868z" fill="#FF9906" p-id="120978"/><path d="m647.67 282 79.19-13.8a22.14 22.14 0 0 0 18-25.62v-.28a22.16 22.16 0 0 0-25.63-18L640 238.12a22.14 22.14 0 0 0-18 25.62v.28A22.13 22.13 0 0 0 647.67 282zM660 353l79.18-13.81a22.15 22.15 0 0 0 18-25.62v-.28a22.15 22.15 0 0 0-25.62-18l-79.19 13.81a22.15 22.15 0 0 0-18 25.62v.28A22.16 22.16 0 0 0 660 353zm109.6 31.47v-.28a22.16 22.16 0 0 0-25.63-18L664.75 380a22.15 22.15 0 0 0-18 25.62v.28a22.15 22.15 0 0 0 25.62 18l79.19-13.81a22.13 22.13 0 0 0 18.04-25.62z" fill="#FFDEC5" p-id="120979"/></svg>