<svg xmlns="http://www.w3.org/2000/svg" class="icon" p-id="61219" t="1760289203240" version="1.1" viewBox="0 0 1024 1024"><path d="M922 910.5H102c-21.9 0-39.6-17.7-39.6-39.6V224.3c0-21.9 17.7-39.6 39.6-39.6h820c21.9 0 39.6 17.7 39.6 39.6v646.6c0 21.8-17.8 39.6-39.6 39.6z" fill="#FFA000" p-id="61220"/><path d="M512 354.9H62.4V153.1c0-21.9 17.7-39.6 39.6-39.6h307.7c17.5 0 32.9 11.4 37.9 28.2L512 354.9z" fill="#FFA000" p-id="61221"/><path d="M859.7 861.3H164.3c-21.9 0-39.6-17.7-39.6-39.6v-537c0-21.9 17.7-39.6 39.6-39.6h695.5c21.9 0 39.6 17.7 39.6 39.6v537c0 21.8-17.8 39.6-39.7 39.6z" fill="#FFF" p-id="61222"/><path d="M922 910.5H102c-21.9 0-39.6-17.7-39.6-39.6V359.1c0-21.9 17.7-39.6 39.6-39.6h820c21.9 0 39.6 17.7 39.6 39.6v511.8c0 21.8-17.8 39.6-39.6 39.6z" fill="#FFCA28" p-id="61223"/><path d="M852.8 319.5 612.4 738.8l-209.8-279L147 471.3l97.5 130.1-97.5 4.4 228.2 304.6H922c21.9 0 39.6-17.7 39.6-39.6V463.3L852.8 319.5z" fill="#FFB806" p-id="61224"/><path d="M382.8 483.1H165.1c-10.9 0-19.8-8.9-19.8-19.8s8.9-19.8 19.8-19.8h217.7c10.9 0 19.8 8.9 19.8 19.8s-8.9 19.8-19.8 19.8zm0 134.5H165.1c-10.9 0-19.8-8.9-19.8-19.8s8.9-19.8 19.8-19.8h217.7c10.9 0 19.8 8.9 19.8 19.8 0 11-8.9 19.8-19.8 19.8z" fill="#FFF8E1" p-id="61225"/></svg>