<svg xmlns="http://www.w3.org/2000/svg" viewBox="0 0 24 24"><path fill="none" stroke="#d0d0d0" stroke-linecap="round" stroke-linejoin="round" stroke-width="1.5" d="M19.548 18A7.96 7.96 0 0 0 22 14.176c-2.453.299-4.963-.833-6.277-3.065a6.13 6.13 0 0 1 .434-6.865 8.26 8.26 0 0 0-6.08.827c-2.77 1.57-4.246 4.493-4.061 7.427M2 15.374a3.15 3.15 0 0 0 3.727 0 1.91 1.91 0 0 1 2.273 0c1.136.812 2.607.83 3.727.018M17 19.635a3.15 3.15 0 0 0-3.727 0 1.94 1.94 0 0 1-2.29-.018c-1.136-.813-2.59-.813-3.71 0-.702.498-1.588.498-2.273 0"/></svg>